<?xml version='1.0' encoding='utf-8'?>
<svg xmlns="http://www.w3.org/2000/svg" width="1323.2mm" height="1323.2mm" version="1.1" viewBox="0 0 1323.2 1323.2"> <g transform="translate(-459.04 -1063.9)"> <g transform="matrix(3.9646 0 0 3.9646 4622.5 28.631)"> <path d="m-1050.2 261.13h333.75v333.75h-333.75z" fill="#fdfcf7" stroke-width=".30903"/> <path d="m-1038.6 272.68v36.272c0 31.454 0.055 36.251 0.4146 36.113 0.2278-0.0874 3.1934-2.01 6.5902-4.2729s7.6987-5.0781 9.5599-6.256c1.8611-1.1779 5.6979-3.896 8.5261-6.0402 7.0439-5.3408 9.6362-7.1184 11.13-7.6318 1.7855-0.61344 6.24-0.55854 11.402 0.14046 2.3476 0.3179 6.4746 0.83894 9.171 1.1578 10.374 1.2268 14.352 2.0385 33.953 6.9312 18.597 4.642 23.566 6.0778 33.94 9.8064 10.361 3.7238 15.163 4.7778 30.346 6.661 0.55369 0.0686 3.0777 0.0812 5.6088 0.0275 5.8533-0.12407 9.4746-0.81053 15.872-3.0089 6.6923-2.2997 25.53-9.4715 37.771-14.38 26.68-10.698 37.711-14.101 45.711-14.101 4.4631 0 6.4782 0.7205 12.601 4.5066 1.7035 1.0533 8.0803 4.4622 14.171 7.575 9.4828 4.8465 22.249 11.844 23.14 12.684 0.15029 0.14172 0.3768 0.25785 0.50335 0.25785 0.12662 0 0.22978-14.95 0.22978-33.221v-33.221h-155.32zm138.71 8.8289c2.3028-0.0217 4.7062 0.1898 6.3397 0.62414 7.4576 1.9829 13.39 7.7813 15.342 14.996 0.68167 2.5191 0.69155 7.8595 0.0186 10.111-0.2673 0.89443-0.4865 2.0763-0.4865 2.6269 0 0.59139-0.464 1.9268-1.1342 3.2634-2.6859 5.3562-7.3102 9.2529-13.451 11.334-2.5661 0.86963-3.1745 0.96255-6.8436 1.0466-4.8455 0.11098-6.9396-0.34235-11.016-2.3864-7.8969-3.9593-12.621-12.559-11.614-21.141 1.1383-9.7018 8.302-17.63 18.065-19.994 1.2596-0.30499 2.9897-0.46339 4.7808-0.48032z" fill="#fceddb" stroke-width=".28763"/> <path d="m-1038.6 378.34 1e-3 -30.438 1.9257-0.99584c1.0592-0.54771 3.5503-2.0225 5.5359-3.2773 1.9855-1.2548 5.0986-3.1844 6.9179-4.288 6.2157-3.7705 10.493-6.941 16.534-12.255 3.5428-3.1164 5.4092-4.4517 6.9081-4.9422 1.8107-0.59252 6.3174-0.39488 13.231 0.58021 11.087 1.5637 15.332 2.4767 27.543 5.9241 3.6005 1.0164 10.914 3.0054 16.251 4.4198 12.62 3.3442 17.794 4.8505 23.942 6.9695 10.543 3.6338 13.71 4.6232 16.943 5.2942 6.3378 1.3153 17.94 2.3203 23.182 2.008 7.7651-0.46276 12.458-1.5124 22.291-4.9855 3.5594-1.2572 9.1251-3.1616 12.368-4.2319 3.243-1.0703 11.98-4.081 19.415-6.6904 30.381-10.662 39.952-13.381 47.171-13.402 4.0722-0.0116 5.0691 0.29775 10.068 3.1239 1.7407 0.98411 8.4066 4.3836 14.813 7.5545 6.4064 3.1708 14.783 7.5569 18.614 9.7467l6.9661 3.9815 0.018 62.63-1.9415-1.6804c-1.0678-0.92423-3.4947-3.0464-5.3931-4.7158-1.8984-1.6695-5.8461-5.1196-8.7728-7.667-2.9266-2.5474-7.4882-6.8442-10.137-9.5485-2.6486-2.7043-5.177-5.1038-5.6187-5.3322-2.231-1.1537-4.2976-0.82535-6.9102 1.0979-2.2937 1.6886-3.4437 2.2559-4.1869 2.0657-1.7428-0.44619-8.471-7.6972-13.815-14.888-2.0744-2.7918-4.7426-6.4038-5.929-8.0268-2.5307-3.4617-6.8926-8.1428-9.0082-9.6673-0.81967-0.59067-2.4825-1.8915-3.6951-2.8908s-2.6646-2.009-3.2266-2.2438c-1.3467-0.5627-4.8334-0.54838-6.8126 0.0279-4.2316 1.2323-12.031 5.9387-18.822 11.358-1.8973 1.5141-7.7315 6.3679-12.965 10.786-5.2333 4.4183-11.834 9.9698-14.669 12.337-3.0329 2.5323-8.6464 7.7609-13.64 12.704-5.4611 5.4066-8.7679 8.4716-9.278 8.5996-1.4039 0.35235-2.7182-0.13297-5.7397-2.1194-3.016-1.9828-7.9064-4.9444-11.013-6.6692-2.7619-1.5336-5.5323-3.4806-8.7727-6.1654-1.6611-1.3763-5.4146-4.0873-8.3413-6.0245-2.9266-1.9372-7.3549-5.1554-9.8406-7.1515-5.3492-4.2956-7.6123-5.8525-11.914-8.1959-1.761-0.95947-4.008-2.3379-4.9933-3.0632-2.4114-1.7752-3.1989-1.7621-7.8846 0.13073-7.1452 2.8864-8.5645 2.695-14.984-2.0212-3.772-2.771-9.3533-6.2237-10.725-6.6346-0.9157-0.27435-1.5632-0.28092-2.8195-0.0286-6.5344 1.3123-14.982 8.9914-28.686 26.075-6.2838 7.8336-7.7758 9.606-12.712 15.101-2.3449 2.6102-5.664 6.3046-7.3758 8.2096s-4.6669 4.924-6.5669 6.7088l-3.4547 3.2451z" fill="#d08292" stroke-width=".28763"/> <path d="m-1038.6 438.33v-26.292l4.0554-4.023c2.2305-2.2126 6.3401-6.6105 9.1323-9.7731s7.2772-8.0163 9.9665-10.786c2.6894-2.7698 7.2129-7.56 10.052-10.645 10.149-11.026 18.853-19.947 21.64-22.18 4.0414-3.2375 5.9832-3.9572 7.9427-2.9439 2.2988 1.1888 5.8056 3.6914 8.9751 6.4052 4.7474 4.0648 5.5965 4.4836 9.0604 4.4694 2.9505-0.0122 2.2291 0.21371 9.1596-2.8678l2.4003-1.0672 1.1951 0.88997c0.65732 0.4895 2.7483 1.8893 4.6467 3.1106 4.7148 3.0334 6.9999 4.7368 10.707 7.9814 4.6644 4.0826 6.6723 5.642 11.297 8.7738 2.2939 1.5534 5.465 3.891 7.047 5.1948 4.7546 3.9183 5.7341 4.4967 20.765 12.262 6.6074 3.4136 7.4483 3.3612 11.737-0.73123 0.94918-0.9057 2.8891-2.6088 4.311-3.7848 1.4219-1.1759 3.9458-3.3534 5.6088-4.8388s5.0146-4.333 7.448-6.3279c5.2418-4.2972 16.147-13.378 24.77-20.627 12.946-10.883 21.172-16.363 26.096-17.385 2.4716-0.51309 3.2173-0.15835 7.0999 3.3776 3.6519 3.3258 6.9654 7.3859 11.104 13.606 4.9042 7.3704 8.9886 12.433 13.661 16.934 3.6538 3.5192 5.7069 4.9435 7.4014 5.1345 1.6424 0.18514 2.8275-0.3427 5.1121-2.277 1.0252-0.86799 2.1689-1.7402 2.5415-1.9383 1.5727-0.83612 3.0904 0.18471 6.3846 4.2946 2.7539 3.4357 5.212 5.9922 9.6205 10.006 2.5311 2.3043 7.3202 6.6719 10.642 9.7058 3.3221 3.0339 6.7102 6.0852 7.5291 6.7806l1.4889 1.2645 0.0426 51.888-0.9348-0.38675c-2.9862-1.2355-24.952-9.2469-28.741-10.482-7.2503-2.3642-9.0338-2.7131-12.75-2.494-5.6102 0.33077-6.4176 0.6517-11.26 4.4759-1.4985 1.1835-1.7763 1.2943-3.2433 1.2943-2.8056 0-6.6927-2.2122-21.739-12.372-10.212-6.8959-11.79-7.8331-21.285-12.645-10.169-5.1539-11.312-5.6169-13.855-5.6106-2.8596 7e-3 -5.0022 0.98403-16.49 7.5191-5.4578 3.1048-12.512 7.1012-15.676 8.8807s-8.7296 4.9178-12.368 6.9739c-3.6385 2.0561-7.0038 3.8696-7.4784 4.03-0.47458 0.16036-1.453 0.83643-2.1743 1.5024-2.0447 1.8879-4.8516 3.8781-6.7423 4.7806-2.7241 1.3003-4.1499 1.1727-10.205-0.91296-2.7652-0.95251-7.619-2.3859-10.786-3.1852-3.1672-0.79938-7.854-2.1545-10.415-3.0114-2.5614-0.85691-5.068-1.558-5.5703-1.558-0.95857 0-6.9401 1.8312-9.2336 2.8268-3.3276 1.4445-5.7009 1.0063-17.644-3.258-11.882-4.2425-14.357-5.3503-21.638-9.6852-5.4989-3.274-7.2228-4.0304-9.5669-4.1981-4.4446-0.31801-9.1364 1.8797-16.268 7.6204-3.7298 3.0023-5.3937 4.5051-14.081 12.717-3.9549 3.7386-7.935 7.4911-8.8446 8.3389l-1.6539 1.5414z" fill="#e67b91" stroke-width=".28763"/> <path d="m-1038.6 506.74 6e-4 -39.477 3.0915-2.7807c1.7002-1.5294 6.3273-5.9111 10.282-9.7372 3.9549-3.8261 8.4204-8.0282 9.9232-9.3381 7.292-6.3556 12.93-9.6229 16.627-9.6362 2.2238-8e-3 3.593 0.67287 10.107 5.0258 8.372 5.5945 13.971 8.4651 21.842 11.199 5.5886 1.9409 7.2861 2.2796 11.539 2.3029l3.883 0.0213 3.0201-1.4981c2.2364-1.1094 3.5891-1.5845 5.2127-1.8313l2.1926-0.33317 4.7106 1.59c2.5908 0.87453 7.817 2.3171 11.614 3.2058 3.7967 0.88865 8.8447 2.2908 11.218 3.1158 3.9586 1.3763 4.528 1.5002 6.9031 1.5018 2.3319 1e-3 2.7868-0.0921 4.5858-0.944 2.1568-1.0213 3.6222-2.1026 6.3912-4.7158 0.97503-0.92019 2.0019-1.6731 2.282-1.6731 0.28005 0 2.6534-1.2118 5.2742-2.6928 2.6207-1.481 10.653-5.902 17.849-9.8245 7.1962-3.9224 15.156-8.3607 17.689-9.8627 8.2492-4.8919 10.123-5.529 13.018-4.4257 1.8476 0.70435 15.348 7.9065 18.913 10.089 1.4238 0.8719 4.4655 2.8822 6.7593 4.4674 12.888 8.906 22.538 14.68 26.442 15.82 3.1348 0.91546 4.5592 0.41895 8.0684-2.8125 3.1562-2.9063 4.593-3.4901 8.49-3.4496 3.2324 0.0336 0.87271-0.76082 19.127 6.4394 4.3504 1.7159 10.628 4.0845 13.95 5.2634 3.3221 1.1789 6.8492 2.4423 7.8379 2.8075l1.7977 0.66399v58.037l-1.0786-0.1703c-0.59324-0.0937-7.4209-1.013-15.173-2.0429-37.097-4.9289-42.563-5.8642-61.265-10.483-17.157-4.2376-22.681-5.188-30.139-5.1855-7.022 2e-3 -13.575 1.1094-22.929 3.8732-1.8193 0.53758-11.527 3.5812-21.572 6.7636-26.743 8.4721-29.124 9.0344-38.255 9.032-6.893-2e-3 -9.721-0.44888-20.997-3.3193-13.825-3.5194-18.757-4.3277-26.462-4.3372-9.6008-0.0119-17.446 1.7108-29.191 6.4096-10.312 4.1259-17.484 7.7411-31.146 15.701-6.8111 3.9683-11.84 6.719-12.283 6.719-0.083 0-0.1499-17.765-0.1496-39.477z" fill="#eb93b9" stroke-width=".28763"/> <path d="m-1038.6 566.41v-16.914l1.9768-0.63669c2.6609-0.85701 6.3762-2.7038 14.274-7.0955 14.938-8.3062 22.75-12.076 33.365-16.102 9.1527-3.4714 16.832-5.0253 24.889-5.0361 6.6925-9e-3 12.135 0.83337 25.878 4.0053 8.1266 1.8756 12.206 2.3999 18.84 2.421 8.5442 0.0273 12.379-0.67714 26.174-4.8078 34.089-10.207 45.865-12.842 57.398-12.842 7.0024 0 13.093 1.07 28.533 5.013 19.158 4.8923 24.489 5.8153 49.111 8.5032 13.665 1.4918 29.196 3.3625 29.842 3.5944 0.28433 0.10218 0.35954 6.058 0.35954 28.47v28.341h-310.64z" fill="#eab0bc" stroke-width=".28763"/> <path d="m-903.57 321.31c-6.2308-1.017-11.115-4.4868-13.815-9.8137-1.6174-3.1917-2.1054-8.3396-1.1439-12.066 1.344-5.2082 5.257-9.8824 10.356-12.371 3.3637-1.6417 5.6194-2.0896 9.7794-1.9416 2.7683 0.0985 3.8692 0.27073 5.5612 0.87029 2.8572 1.0125 4.9432 2.318 7.0528 4.414 2.112 2.0984 3.4249 4.2094 4.3936 7.0641 1.3604 4.0089 1.1844 9.7164-0.35611 11.547-0.39355 0.4677-0.98539 1.3832-1.3152 2.0344-0.98074 1.9365-3.3048 4.6586-5.2107 6.1031-1.9744 1.4964-5.6616 3.3174-7.7194 3.8122-1.8501 0.44492-5.8596 0.6284-7.5836 0.34703z" fill="#e67d20" stroke-width=".28763"/> </g> </g> </svg>