<svg id="eC8OFILKZUR1" xmlns="http://www.w3.org/2000/svg" xmlns:xlink="http://www.w3.org/1999/xlink" viewBox="0 0 700 400" shape-rendering="geometricPrecision" text-rendering="geometricPrecision"><defs><linearGradient id="eC8OFILKZUR3-fill" x1="1336.509466" y1="-78.977803" x2="67.606097" y2="1121.778519" spreadMethod="pad" gradientUnits="userSpaceOnUse" gradientTransform="translate(0 0)"><stop id="eC8OFILKZUR3-fill-0" offset="2.2%" stop-color="#283673"/><stop id="eC8OFILKZUR3-fill-1" offset="100%" stop-color="#020a17"/></linearGradient><linearGradient id="eC8OFILKZUR7-fill" x1="675.630062" y1="877.208728" x2="107.814" y2="-28.577" spreadMethod="pad" gradientUnits="userSpaceOnUse" gradientTransform="translate(0 0)"><stop id="eC8OFILKZUR7-fill-0" offset="0%" stop-color="rgba(255,255,255,0.6)"/><stop id="eC8OFILKZUR7-fill-1" offset="100%" stop-color="rgba(255,255,255,0.1)"/></linearGradient><linearGradient id="eC8OFILKZUR7-stroke" x1="294.128" y1="588.964" x2="294.128" y2="-0.708" spreadMethod="pad" gradientUnits="userSpaceOnUse" gradientTransform="translate(0 0)"><stop id="eC8OFILKZUR7-stroke-0" offset="0%" stop-color="rgba(255,255,255,0.1)"/><stop id="eC8OFILKZUR7-stroke-1" offset="25.8%" stop-color="rgba(255,255,255,0.265)"/><stop id="eC8OFILKZUR7-stroke-2" offset="83.5%" stop-color="rgba(255,255,255,0.678)"/><stop id="eC8OFILKZUR7-stroke-3" offset="100%" stop-color="rgba(255,255,255,0.8)"/></linearGradient><filter id="eC8OFILKZUR11-filter" x="-150%" width="400%" y="-150%" height="400%"><feGaussianBlur id="eC8OFILKZUR11-filter-blur-0" stdDeviation="10,10" result="result"/></filter><linearGradient id="eC8OFILKZUR11-stroke" x1="39.753662" y1="1077.18903" x2="196.520068" y2="588.566467" spreadMethod="pad" gradientUnits="userSpaceOnUse" gradientTransform="translate(0 0)"><stop id="eC8OFILKZUR11-stroke-0" offset="0%" stop-color="#58fffe"/><stop id="eC8OFILKZUR11-stroke-1" offset="94%" stop-color="#0e3bbd"/></linearGradient><filter id="eC8OFILKZUR12-filter" x="-150%" width="400%" y="-150%" height="400%"><feGaussianBlur id="eC8OFILKZUR12-filter-blur-0" stdDeviation="10,10" result="result"/></filter><linearGradient id="eC8OFILKZUR12-stroke" x1="75.488662" y1="1077.18903" x2="232.255068" y2="588.566467" spreadMethod="pad" gradientUnits="userSpaceOnUse" gradientTransform="translate(0 0)"><stop id="eC8OFILKZUR12-stroke-0" offset="0%" stop-color="#58fffe"/><stop id="eC8OFILKZUR12-stroke-1" offset="94%" stop-color="#0e3bbd"/></linearGradient><filter id="eC8OFILKZUR13-filter" x="-150%" width="400%" y="-150%" height="400%"><feGaussianBlur id="eC8OFILKZUR13-filter-blur-0" stdDeviation="10,10" result="result"/></filter><linearGradient id="eC8OFILKZUR13-stroke" x1="239.488662" y1="1077.18903" x2="396.255068" y2="588.566467" spreadMethod="pad" gradientUnits="userSpaceOnUse" gradientTransform="translate(0 0)"><stop id="eC8OFILKZUR13-stroke-0" offset="0%" stop-color="#58fffe"/><stop id="eC8OFILKZUR13-stroke-1" offset="94%" stop-color="#0e3bbd"/></linearGradient><filter id="eC8OFILKZUR14-filter" x="-150%" width="400%" y="-150%" height="400%"><feGaussianBlur id="eC8OFILKZUR14-filter-blur-0" stdDeviation="10,10" result="result"/></filter><linearGradient id="eC8OFILKZUR14-stroke" x1="100.488662" y1="1077.18903" x2="257.255068" y2="588.566467" spreadMethod="pad" gradientUnits="userSpaceOnUse" gradientTransform="translate(0 0)"><stop id="eC8OFILKZUR14-stroke-0" offset="0%" stop-color="#58fffe"/><stop id="eC8OFILKZUR14-stroke-1" offset="94%" stop-color="#0e3bbd"/></linearGradient><filter id="eC8OFILKZUR15-filter" x="-150%" width="400%" y="-150%" height="400%"><feGaussianBlur id="eC8OFILKZUR15-filter-blur-0" stdDeviation="10,10" result="result"/></filter><linearGradient id="eC8OFILKZUR15-stroke" x1="124.488662" y1="1077.18903" x2="281.255068" y2="588.566467" spreadMethod="pad" gradientUnits="userSpaceOnUse" gradientTransform="translate(0 0)"><stop id="eC8OFILKZUR15-stroke-0" offset="0%" stop-color="#58fffe"/><stop id="eC8OFILKZUR15-stroke-1" offset="94%" stop-color="#0e3bbd"/></linearGradient><linearGradient id="eC8OFILKZUR20-stroke" x1="295.598836" y1="1074.934884" x2="414.875426" y2="666.776168" spreadMethod="pad" gradientUnits="userSpaceOnUse" gradientTransform="translate(0 0)"><stop id="eC8OFILKZUR20-stroke-0" offset="0%" stop-color="#58fffe"/><stop id="eC8OFILKZUR20-stroke-1" offset="12%" stop-color="#4fe0fa"/><stop id="eC8OFILKZUR20-stroke-2" offset="33%" stop-color="#41b1f5"/><stop id="eC8OFILKZUR20-stroke-3" offset="53%" stop-color="#368bf1"/><stop id="eC8OFILKZUR20-stroke-4" offset="71%" stop-color="#2e70ee"/><stop id="eC8OFILKZUR20-stroke-5" offset="88%" stop-color="#2a60ec"/><stop id="eC8OFILKZUR20-stroke-6" offset="100%" stop-color="#285aeb"/></linearGradient><linearGradient id="eC8OFILKZUR21-stroke" x1="409.720016" y1="1074.935818" x2="559.613072" y2="562.009037" spreadMethod="pad" gradientUnits="userSpaceOnUse" gradientTransform="translate(0 0)"><stop id="eC8OFILKZUR21-stroke-0" offset="0%" stop-color="#58fffe"/><stop id="eC8OFILKZUR21-stroke-1" offset="12%" stop-color="#4fe0fa"/><stop id="eC8OFILKZUR21-stroke-2" offset="33%" stop-color="#41b1f5"/><stop id="eC8OFILKZUR21-stroke-3" offset="53%" stop-color="#368bf1"/><stop id="eC8OFILKZUR21-stroke-4" offset="71%" stop-color="#2e70ee"/><stop id="eC8OFILKZUR21-stroke-5" offset="88%" stop-color="#2a60ec"/><stop id="eC8OFILKZUR21-stroke-6" offset="100%" stop-color="#285aeb"/></linearGradient><linearGradient id="eC8OFILKZUR22-stroke" x1="409.720016" y1="1074.935818" x2="559.613072" y2="562.009037" spreadMethod="pad" gradientUnits="userSpaceOnUse" gradientTransform="translate(0 0)"><stop id="eC8OFILKZUR22-stroke-0" offset="0%" stop-color="#58fffe"/><stop id="eC8OFILKZUR22-stroke-1" offset="12%" stop-color="#4fe0fa"/><stop id="eC8OFILKZUR22-stroke-2" offset="33%" stop-color="#41b1f5"/><stop id="eC8OFILKZUR22-stroke-3" offset="53%" stop-color="#368bf1"/><stop id="eC8OFILKZUR22-stroke-4" offset="71%" stop-color="#2e70ee"/><stop id="eC8OFILKZUR22-stroke-5" offset="88%" stop-color="#2a60ec"/><stop id="eC8OFILKZUR22-stroke-6" offset="100%" stop-color="#285aeb"/></linearGradient><linearGradient id="eC8OFILKZUR23-stroke" x1="519.211991" y1="1074.948745" x2="638.491386" y2="666.78043" spreadMethod="pad" gradientUnits="userSpaceOnUse" gradientTransform="translate(0 0)"><stop id="eC8OFILKZUR23-stroke-0" offset="0%" stop-color="#58fffe"/><stop id="eC8OFILKZUR23-stroke-1" offset="12%" stop-color="#4fe0fa"/><stop id="eC8OFILKZUR23-stroke-2" offset="33%" stop-color="#41b1f5"/><stop id="eC8OFILKZUR23-stroke-3" offset="53%" stop-color="#368bf1"/><stop id="eC8OFILKZUR23-stroke-4" offset="71%" stop-color="#2e70ee"/><stop id="eC8OFILKZUR23-stroke-5" offset="88%" stop-color="#2a60ec"/><stop id="eC8OFILKZUR23-stroke-6" offset="100%" stop-color="#285aeb"/></linearGradient><linearGradient id="eC8OFILKZUR24-stroke" x1="620.633974" y1="1074.947476" x2="770.52703" y2="562.020696" spreadMethod="pad" gradientUnits="userSpaceOnUse" gradientTransform="translate(0 0)"><stop id="eC8OFILKZUR24-stroke-0" offset="0%" stop-color="#58fffe"/><stop id="eC8OFILKZUR24-stroke-1" offset="12%" stop-color="#4fe0fa"/><stop id="eC8OFILKZUR24-stroke-2" offset="33%" stop-color="#41b1f5"/><stop id="eC8OFILKZUR24-stroke-3" offset="53%" stop-color="#368bf1"/><stop id="eC8OFILKZUR24-stroke-4" offset="71%" stop-color="#2e70ee"/><stop id="eC8OFILKZUR24-stroke-5" offset="88%" stop-color="#2a60ec"/><stop id="eC8OFILKZUR24-stroke-6" offset="100%" stop-color="#285aeb"/></linearGradient><linearGradient id="eC8OFILKZUR27-fill" x1="793.395956" y1="768.660532" x2="382.5" y2="268.34" spreadMethod="pad" gradientUnits="userSpaceOnUse" gradientTransform="translate(0 0)"><stop id="eC8OFILKZUR27-fill-0" offset="0%" stop-color="rgba(255,255,255,0.1)"/><stop id="eC8OFILKZUR27-fill-1" offset="100%" stop-color="rgba(255,255,255,0.8)"/></linearGradient><linearGradient id="eC8OFILKZUR27-stroke" x1="540" y1="713.74" x2="540" y2="240.73" spreadMethod="pad" gradientUnits="userSpaceOnUse" gradientTransform="translate(0 0)"><stop id="eC8OFILKZUR27-stroke-0" offset="0%" stop-color="rgba(255,255,255,0.3)"/><stop id="eC8OFILKZUR27-stroke-1" offset="100%" stop-color="rgba(255,255,255,0.8)"/></linearGradient><linearGradient id="eC8OFILKZUR28-fill" x1="675.630062" y1="877.208728" x2="107.814" y2="-28.577" spreadMethod="pad" gradientUnits="userSpaceOnUse" gradientTransform="translate(0 0)"><stop id="eC8OFILKZUR28-fill-0" offset="0%" stop-color="rgba(255,255,255,0.6)"/><stop id="eC8OFILKZUR28-fill-1" offset="100%" stop-color="rgba(255,255,255,0.1)"/></linearGradient><linearGradient id="eC8OFILKZUR28-stroke" x1="294.128" y1="588.964" x2="294.128" y2="-0.708" spreadMethod="pad" gradientUnits="userSpaceOnUse" gradientTransform="translate(0 0)"><stop id="eC8OFILKZUR28-stroke-0" offset="0%" stop-color="rgba(255,255,255,0.1)"/><stop id="eC8OFILKZUR28-stroke-1" offset="25.8%" stop-color="rgba(255,255,255,0.265)"/><stop id="eC8OFILKZUR28-stroke-2" offset="83.5%" stop-color="rgba(255,255,255,0.678)"/><stop id="eC8OFILKZUR28-stroke-3" offset="100%" stop-color="rgba(255,255,255,0.8)"/></linearGradient><filter id="eC8OFILKZUR34-filter" x="-150%" width="400%" y="-150%" height="400%"><feGaussianBlur id="eC8OFILKZUR34-filter-blur-0" stdDeviation="12,12" result="result"/></filter><radialGradient id="eC8OFILKZUR34-fill" cx="0" cy="0" r="143.802601" spreadMethod="pad" gradientUnits="userSpaceOnUse" gradientTransform="matrix(0.99998 0.006255 -0.006644 1.062237 -87.421963 -73.490245)"><stop id="eC8OFILKZUR34-fill-0" offset="0%" stop-color="#ffd103"/><stop id="eC8OFILKZUR34-fill-1" offset="57.2478%" stop-color="#f7951b"/><stop id="eC8OFILKZUR34-fill-2" offset="76.5383%" stop-color="#f58322"/><stop id="eC8OFILKZUR34-fill-3" offset="92.42%" stop-color="#f47c25"/></radialGradient><linearGradient id="eC8OFILKZUR37-fill" x1="633.466" y1="672.467" x2="467.201" y2="384.487" spreadMethod="pad" gradientUnits="userSpaceOnUse" gradientTransform="translate(0 0)"><stop id="eC8OFILKZUR37-fill-0" offset="0%" stop-color="rgba(255,255,255,0.1)"/><stop id="eC8OFILKZUR37-fill-1" offset="48.4%" stop-color="rgba(255,255,255,0.431)"/><stop id="eC8OFILKZUR37-fill-2" offset="100%" stop-color="rgba(255,255,255,0.8)"/></linearGradient><linearGradient id="eC8OFILKZUR37-stroke" x1="553.362" y1="626.634" x2="553.362" y2="369.355" spreadMethod="pad" gradientUnits="userSpaceOnUse" gradientTransform="translate(0 0)"><stop id="eC8OFILKZUR37-stroke-0" offset="0%" stop-color="rgba(255,255,255,0.1)"/><stop id="eC8OFILKZUR37-stroke-1" offset="25.8%" stop-color="rgba(255,255,255,0.265)"/><stop id="eC8OFILKZUR37-stroke-2" offset="83.5%" stop-color="rgba(255,255,255,0.678)"/><stop id="eC8OFILKZUR37-stroke-3" offset="100%" stop-color="rgba(255,255,255,0.8)"/></linearGradient><radialGradient id="eC8OFILKZUR41-fill" cx="0" cy="0" r="143.802601" spreadMethod="pad" gradientUnits="userSpaceOnUse" gradientTransform="matrix(0.99998 0.006255 -0.006644 1.062237 -87.421963 -73.490245)"><stop id="eC8OFILKZUR41-fill-0" offset="0%" stop-color="#ffd103"/><stop id="eC8OFILKZUR41-fill-1" offset="57.2478%" stop-color="#f7951b"/><stop id="eC8OFILKZUR41-fill-2" offset="76.5383%" stop-color="#f58322"/><stop id="eC8OFILKZUR41-fill-3" offset="92.42%" stop-color="#f47c25"/></radialGradient><linearGradient id="eC8OFILKZUR44-fill" x1="675.630062" y1="877.208728" x2="107.814" y2="-28.577" spreadMethod="pad" gradientUnits="userSpaceOnUse" gradientTransform="translate(0 0)"><stop id="eC8OFILKZUR44-fill-0" offset="0%" stop-color="rgba(255,255,255,0.6)"/><stop id="eC8OFILKZUR44-fill-1" offset="49.2135%" stop-color="rgba(255,255,255,0.305)"/><stop id="eC8OFILKZUR44-fill-2" offset="100%" stop-color="rgba(255,255,255,0.1)"/></linearGradient><linearGradient id="eC8OFILKZUR44-stroke" x1="294.128" y1="588.964" x2="294.128" y2="-0.708" spreadMethod="pad" gradientUnits="userSpaceOnUse" gradientTransform="translate(0 0)"><stop id="eC8OFILKZUR44-stroke-0" offset="0%" stop-color="rgba(255,255,255,0.1)"/><stop id="eC8OFILKZUR44-stroke-1" offset="25.8%" stop-color="rgba(255,255,255,0.265)"/><stop id="eC8OFILKZUR44-stroke-2" offset="83.5%" stop-color="rgba(255,255,255,0.678)"/><stop id="eC8OFILKZUR44-stroke-3" offset="100%" stop-color="rgba(255,255,255,0.8)"/></linearGradient><filter id="eC8OFILKZUR48-filter" x="-150%" width="400%" y="-150%" height="400%"><feGaussianBlur id="eC8OFILKZUR48-filter-blur-0" stdDeviation="12,12" result="result"/></filter><linearGradient id="eC8OFILKZUR48-fill" x1="557.273726" y1="949.006772" x2="411.2" y2="601.88" spreadMethod="pad" gradientUnits="userSpaceOnUse" gradientTransform="translate(0 0)"><stop id="eC8OFILKZUR48-fill-0" offset="0%" stop-color="#f9cc00"/><stop id="eC8OFILKZUR48-fill-1" offset="94%" stop-color="#f47c25"/></linearGradient><linearGradient id="eC8OFILKZUR53-fill" x1="536.555171" y1="929.198858" x2="411.2" y2="601.88" spreadMethod="pad" gradientUnits="userSpaceOnUse" gradientTransform="translate(0 0)"><stop id="eC8OFILKZUR53-fill-0" offset="0%" stop-color="#f9cc00"/><stop id="eC8OFILKZUR53-fill-1" offset="72.0589%" stop-color="#f47c25"/></linearGradient><linearGradient id="eC8OFILKZUR56-fill" x1="687.68" y1="796.92" x2="382.5" y2="268.34" spreadMethod="pad" gradientUnits="userSpaceOnUse" gradientTransform="translate(0 0)"><stop id="eC8OFILKZUR56-fill-0" offset="0%" stop-color="rgba(255,255,255,0.1)"/><stop id="eC8OFILKZUR56-fill-1" offset="100%" stop-color="rgba(255,255,255,0.8)"/></linearGradient><linearGradient id="eC8OFILKZUR56-stroke" x1="540" y1="713.74" x2="540" y2="240.73" spreadMethod="pad" gradientUnits="userSpaceOnUse" gradientTransform="translate(0 0)"><stop id="eC8OFILKZUR56-stroke-0" offset="0%" stop-color="rgba(255,255,255,0)"/><stop id="eC8OFILKZUR56-stroke-1" offset="100%" stop-color="rgba(255,255,255,0.8)"/></linearGradient><linearGradient id="eC8OFILKZUR57-fill" x1="675.630062" y1="877.208728" x2="107.814" y2="-28.577" spreadMethod="pad" gradientUnits="userSpaceOnUse" gradientTransform="translate(0 0)"><stop id="eC8OFILKZUR57-fill-0" offset="0%" stop-color="rgba(255,255,255,0.6)"/><stop id="eC8OFILKZUR57-fill-1" offset="41%" stop-color="rgba(255,255,255,0.365)"/><stop id="eC8OFILKZUR57-fill-2" offset="100%" stop-color="rgba(255,255,255,0.1)"/></linearGradient><linearGradient id="eC8OFILKZUR57-stroke" x1="294.128" y1="588.964" x2="294.128" y2="-0.708" spreadMethod="pad" gradientUnits="userSpaceOnUse" gradientTransform="translate(0 0)"><stop id="eC8OFILKZUR57-stroke-0" offset="0%" stop-color="rgba(255,255,255,0.1)"/><stop id="eC8OFILKZUR57-stroke-1" offset="25.8%" stop-color="rgba(255,255,255,0.265)"/><stop id="eC8OFILKZUR57-stroke-2" offset="83.5%" stop-color="rgba(255,255,255,0.678)"/><stop id="eC8OFILKZUR57-stroke-3" offset="100%" stop-color="rgba(255,255,255,0.8)"/></linearGradient><linearGradient id="eC8OFILKZUR61-fill" x1="310.492544" y1="815.64582" x2="562.053167" y2="815.831485" spreadMethod="pad" gradientUnits="userSpaceOnUse" gradientTransform="translate(0 0)"><stop id="eC8OFILKZUR61-fill-0" offset="0%" stop-color="#5ce7f5"/><stop id="eC8OFILKZUR61-fill-1" offset="87%" stop-color="#1259ac"/></linearGradient><linearGradient id="eC8OFILKZUR62-fill" x1="573.953155" y1="774.012111" x2="572.24098" y2="702.956846" spreadMethod="pad" gradientUnits="userSpaceOnUse" gradientTransform="translate(0 0)"><stop id="eC8OFILKZUR62-fill-0" offset="0%" stop-color="#5ce7f5"/><stop id="eC8OFILKZUR62-fill-1" offset="100%" stop-color="#1259ac"/></linearGradient><linearGradient id="eC8OFILKZUR63-fill" x1="708.74" y1="874.6" x2="708.74" y2="703.8" spreadMethod="pad" gradientUnits="userSpaceOnUse" gradientTransform="translate(0 0)"><stop id="eC8OFILKZUR63-fill-0" offset="0%" stop-color="#5ce7f5"/><stop id="eC8OFILKZUR63-fill-1" offset="94.8574%" stop-color="#1259ac"/></linearGradient><filter id="eC8OFILKZUR67-filter" x="-150%" width="400%" y="-150%" height="400%"><feGaussianBlur id="eC8OFILKZUR67-filter-blur-0" stdDeviation="10,10" result="result"/></filter><linearGradient id="eC8OFILKZUR68-fill" x1="427.08" y1="939.07" x2="427.08" y2="694.09" spreadMethod="pad" gradientUnits="userSpaceOnUse" gradientTransform="translate(0 0)"><stop id="eC8OFILKZUR68-fill-0" offset="0%" stop-color="#5ce7f5"/><stop id="eC8OFILKZUR68-fill-1" offset="10%" stop-color="#55d7f1"/><stop id="eC8OFILKZUR68-fill-2" offset="37%" stop-color="#45b2e9"/><stop id="eC8OFILKZUR68-fill-3" offset="61%" stop-color="#3a97e3"/><stop id="eC8OFILKZUR68-fill-4" offset="83%" stop-color="#3287df"/><stop id="eC8OFILKZUR68-fill-5" offset="100%" stop-color="#3081de"/></linearGradient><linearGradient id="eC8OFILKZUR69-fill" x1="566.503102" y1="761.743367" x2="566.503102" y2="611.425484" spreadMethod="pad" gradientUnits="userSpaceOnUse" gradientTransform="translate(0 0)"><stop id="eC8OFILKZUR69-fill-0" offset="0%" stop-color="#5ce7f5"/><stop id="eC8OFILKZUR69-fill-1" offset="100%" stop-color="#1259ac"/></linearGradient><linearGradient id="eC8OFILKZUR70-fill" x1="708.74" y1="874.6" x2="708.74" y2="703.8" spreadMethod="pad" gradientUnits="userSpaceOnUse" gradientTransform="translate(0 0)"><stop id="eC8OFILKZUR70-fill-0" offset="0%" stop-color="#5ce7f5"/><stop id="eC8OFILKZUR70-fill-1" offset="100%" stop-color="#1259ac"/></linearGradient><linearGradient id="eC8OFILKZUR73-fill" x1="828.781428" y1="797.871567" x2="401.42" y2="271.43" spreadMethod="pad" gradientUnits="userSpaceOnUse" gradientTransform="translate(0 0)"><stop id="eC8OFILKZUR73-fill-0" offset="0%" stop-color="rgba(255,255,255,0)"/><stop id="eC8OFILKZUR73-fill-1" offset="100%" stop-color="rgba(255,255,255,0.8)"/></linearGradient><linearGradient id="eC8OFILKZUR73-stroke" x1="558.91" y1="716.84" x2="558.91" y2="243.83" spreadMethod="pad" gradientUnits="userSpaceOnUse" gradientTransform="translate(0 0)"><stop id="eC8OFILKZUR73-stroke-0" offset="0%" stop-color="rgba(255,255,255,0.2)"/><stop id="eC8OFILKZUR73-stroke-1" offset="100%" stop-color="rgba(255,255,255,0.8)"/></linearGradient></defs><g mask="url(#eC8OFILKZUR4)"><rect width="1600" height="1084.6" rx="0" ry="0" transform="translate(0-2.3)" fill="url(#eC8OFILKZUR3-fill)"/><mask id="eC8OFILKZUR4" mask-type="luminance" x="-150%" y="-150%" height="400%" width="400%"><rect width="700" height="400" rx="0" ry="0" fill="#fff" stroke-width="0"/></mask></g><g transform="matrix(.480404 0 0 0.480404 85.198693-81.753706)"><rect width="588.255" height="588.255" rx="79.698" ry="79.698" transform="matrix(.485216 0 0 0.485216 229.914449 264.758127)" fill="url(#eC8OFILKZUR7-fill)" stroke="url(#eC8OFILKZUR7-stroke)" stroke-width="1.41732" stroke-miterlimit="10"/><g transform="matrix(.212748 0 0 0.212748 252.304903 294.727198)"><g clip-path="url(#eC8OFILKZUR16)"><g transform="translate(37-34)"><line id="eC8OFILKZUR11" x1="410.69" y1="681.16" x2="299.84" y2="1060.53" transform="translate(35.735 0)" filter="url(#eC8OFILKZUR11-filter)" fill="none" stroke="url(#eC8OFILKZUR11-stroke)" stroke-width="30" stroke-linecap="round" stroke-miterlimit="10" stroke-dashoffset="380" stroke-dasharray="130,60"/><line id="eC8OFILKZUR12" x1="555.42" y1="576.39" x2="413.96" y2="1060.53" filter="url(#eC8OFILKZUR12-filter)" fill="none" stroke="url(#eC8OFILKZUR12-stroke)" stroke-width="30" stroke-linecap="round" stroke-miterlimit="10" stroke-dashoffset="540" stroke-dasharray="100,80"/><line id="eC8OFILKZUR13" x1="547.833956" y1="604.98791" x2="413.96" y2="1060.53" transform="translate(-164 0)" filter="url(#eC8OFILKZUR13-filter)" fill="none" stroke="url(#eC8OFILKZUR13-stroke)" stroke-width="30" stroke-linecap="round" stroke-miterlimit="10" stroke-dashoffset="540" stroke-dasharray="100,80"/><line id="eC8OFILKZUR14" x1="634.3" y1="681.16" x2="523.45" y2="1060.53" transform="translate(-25 0)" filter="url(#eC8OFILKZUR14-filter)" fill="none" stroke="url(#eC8OFILKZUR14-stroke)" stroke-width="30" stroke-linecap="round" stroke-miterlimit="10" stroke-dashoffset="380" stroke-dasharray="130,60"/><line id="eC8OFILKZUR15" x1="759.713295" y1="604.145434" x2="663.325661" y2="911.426844" transform="translate(-49 0)" filter="url(#eC8OFILKZUR15-filter)" fill="none" stroke="url(#eC8OFILKZUR15-stroke)" stroke-width="30" stroke-linecap="round" stroke-miterlimit="10" stroke-dashoffset="540" stroke-dasharray="100,80"/></g><clipPath id="eC8OFILKZUR16"><path d="M270.74,397c-86.678638,1.686273-155.83557,72.853795-155.037772,159.545163s71.252781,156.574077,157.947772,156.664837h510.63c99.51,0,180.19-80.67,180.19-180.18-.035091-62.391479-32.330935-120.328536-85.380504-153.168163s-119.308802-35.911776-175.169496-8.121837c-39.975596-80.000846-121.737438-130.532352-211.17-130.51-102.17,0-189.18,64.94-222,155.8" transform="translate(0 4.067382)" fill="none"/></clipPath></g><g clip-path="url(#eC8OFILKZUR25)"><g transform="translate(43-64)"><line id="eC8OFILKZUR20" x1="410.69" y1="681.16" x2="299.84" y2="1060.53" transform="translate(35.735 0)" fill="none" stroke="url(#eC8OFILKZUR20-stroke)" stroke-width="30" stroke-linecap="round" stroke-miterlimit="10" stroke-dashoffset="380" stroke-dasharray="130,60"/><line id="eC8OFILKZUR21" x1="555.42" y1="576.39" x2="447.596061" y2="964.554312" fill="none" stroke="url(#eC8OFILKZUR21-stroke)" stroke-width="30" stroke-linecap="round" stroke-miterlimit="10" stroke-dashoffset="540" stroke-dasharray="100,80"/><line id="eC8OFILKZUR22" x1="545.833959" y1="633.849309" x2="455.904528" y2="930.814959" transform="translate(-168 0)" fill="none" stroke="url(#eC8OFILKZUR22-stroke)" stroke-width="30" stroke-linecap="round" stroke-miterlimit="10" stroke-dashoffset="540" stroke-dasharray="90,50"/><line id="eC8OFILKZUR23" x1="634.3" y1="681.16" x2="523.45" y2="1060.53" transform="translate(-25 0)" fill="none" stroke="url(#eC8OFILKZUR23-stroke)" stroke-width="30" stroke-linecap="round" stroke-miterlimit="10" stroke-dashoffset="380" stroke-dasharray="130,60"/><line id="eC8OFILKZUR24" x1="766.34" y1="576.39" x2="663.457378" y2="927.474016" transform="translate(-49 0)" fill="none" stroke="url(#eC8OFILKZUR24-stroke)" stroke-width="30" stroke-linecap="round" stroke-miterlimit="10" stroke-dashoffset="540" stroke-dasharray="100,80"/></g><clipPath id="eC8OFILKZUR25"><rect width="641.11" height="366.72" rx="0" ry="0" transform="translate(204.43 717.307382)" fill="none"/></clipPath></g><path d="M270.74,397c-86.678638,1.686273-155.83557,72.853795-155.037772,159.545163s71.252781,156.574077,157.947772,156.664837h510.63c99.51,0,180.19-80.67,180.19-180.18-.035091-62.391479-32.330935-120.328536-85.380504-153.168163s-119.308802-35.911776-175.169496-8.121837c-39.975596-80.000846-121.737438-130.532352-211.17-130.51-102.17,0-189.18,64.94-222,155.8" transform="translate(4.482104 4.482108)" fill="url(#eC8OFILKZUR27-fill)" stroke="url(#eC8OFILKZUR27-stroke)" stroke-miterlimit="10"/></g><rect width="588.255" height="588.255" rx="79.698" ry="79.698" transform="matrix(.48751 0 0 0.48751 586.706045 264.083399)" fill="url(#eC8OFILKZUR28-fill)" stroke="url(#eC8OFILKZUR28-stroke)" stroke-width="1.41732" stroke-miterlimit="10"/><g transform="matrix(.391494 0 0 0.391494 525.256339 228.739982)"><g id="eC8OFILKZUR30" transform="translate(.000001 0)"><g><g clip-path="url(#eC8OFILKZUR35)"><g><circle id="eC8OFILKZUR34" r="121.125" transform="translate(387.192994 451.752529)" filter="url(#eC8OFILKZUR34-filter)" fill="url(#eC8OFILKZUR34-fill)"/></g><clipPath id="eC8OFILKZUR35"><path d="M785.085,528.581c.003448,25.86939-10.269889,50.680592-28.559965,68.975357s-43.098645,28.574461-68.968035,28.577643h-282.422c-46.037425-.030796-83.368762-37.309146-83.464948-83.346481s37.079054-83.471352,83.115948-83.694519c15.938887-49.964053,60.704137-85.18062,113.016205-88.909204s101.619582,24.782872,124.483795,71.981204c30.239781-15.818045,66.546326-14.687561,95.743423,2.981181s47.041265,49.307782,47.056577,83.434819Z" fill="none"/></clipPath></g></g><path d="M785.085,528.581c.003448,25.86939-10.269889,50.680592-28.559965,68.975357s-43.098645,28.574461-68.968035,28.577643h-282.422c-46.037425-.030796-83.368762-37.309146-83.464948-83.346481s37.079054-83.471352,83.115948-83.694519c15.938887-49.964053,60.704137-85.18062,113.016205-88.909204s101.619582,24.782872,124.483795,71.981204c30.239781-15.818045,66.546326-14.687561,95.743423,2.981181s47.041265,49.307782,47.056577,83.434819Z" fill="url(#eC8OFILKZUR37-fill)" stroke="url(#eC8OFILKZUR37-stroke)" stroke-miterlimit="10"/></g><g><g clip-path="url(#eC8OFILKZUR42)"><g><circle r="121.125" transform="translate(387.459 451.659)" fill="url(#eC8OFILKZUR41-fill)"/></g><clipPath id="eC8OFILKZUR42"><path id="eC8OFILKZUR43" d="M806.17,154.864v470.49h-118.29c40.50243-.025101,76.77519-25.07769,91.139372-62.947437s3.830687-80.676181-26.466589-107.555961-74.053645-32.239383-109.942783-13.466602c-21.424695-44.222788-66.240682-72.309493-115.38-72.31-57.21,0-105.64,38.51-122.12,90.24-45.97.2-83.15,36.53-83.15,82.52-.004419,46.120842,37.379158,83.513373,83.5,83.52h-356.06v-470.49Z" fill="none"/></clipPath></g></g></g><rect width="588.255" height="588.255" rx="79.698" ry="79.698" transform="matrix(.487321 0 0 0.487321 228.924663 622.234042)" fill="url(#eC8OFILKZUR44-fill)" stroke="url(#eC8OFILKZUR44-stroke)" stroke-width="1.41732" stroke-miterlimit="10"/><g transform="matrix(.212755 0 0 0.212755 259.518199 644.427673)"><g clip-path="url(#eC8OFILKZUR49)"><g><polygon id="eC8OFILKZUR48" points="490.65,556.01 369.11,763.53 491.83,763.53 410.55,1012 635.11,680.89 534.54,682.36 621,554.01 490.65,556.01" transform="matrix(.970416 0 0 0.970416 16.854422 4.389832)" filter="url(#eC8OFILKZUR48-filter)" fill="url(#eC8OFILKZUR48-fill)"/></g><clipPath id="eC8OFILKZUR49"><path d="M964.46,533.06c0,47.78844-18.984568,93.619444-52.777036,127.410036s-79.624525,52.772616-127.412964,52.769964h-510.62c-87.327265.800813-158.769187-69.342735-159.57-156.67s69.342735-158.769187,156.67-159.57c32.82-90.86,119.83-155.8,222-155.8c89.442846-.020464,171.211177,50.524274,211.18,130.54c55.86288-27.794864,122.127734-24.720379,175.176969,8.127672s85.336049,90.796691,85.353031,153.192328Z" transform="matrix(1 0 0 1.001409 0-.672407)" fill="none"/></clipPath></g><g clip-path="url(#eC8OFILKZUR54)"><g><polygon id="eC8OFILKZUR53" points="490.65,556.01 369.11,763.53 491.83,763.53 438.340456,946.796959 635.11,680.89 534.54,682.36 621,554.01 490.65,556.01" transform="translate(2-14.01)" fill="url(#eC8OFILKZUR53-fill)"/></g><clipPath id="eC8OFILKZUR54"><polygon points="263.4,713.24 816.43,713.24 816.43,1161.11 263.4,1167.23 263.4,713.24" transform="matrix(1 0 0 1.00219 0.085-2.173405)" fill="none"/></clipPath></g><path d="M964.46,533.06c0,47.78844-18.984568,93.619444-52.777036,127.410036s-79.624525,52.772616-127.412964,52.769964h-510.62c-87.327265.800813-158.769187-69.342735-159.57-156.67s69.342735-158.769187,156.67-159.57c32.82-90.86,119.83-155.8,222-155.8c89.442846-.020464,171.211177,50.524274,211.18,130.54c55.86288-27.794864,122.127734-24.720379,175.176969,8.127672s85.336049,90.796691,85.353031,153.192328Z" fill="url(#eC8OFILKZUR56-fill)" stroke="url(#eC8OFILKZUR56-stroke)" stroke-miterlimit="10"/></g><rect width="588.255" height="588.255" rx="79.698" ry="79.698" transform="matrix(.487321 0 0 0.487321 586.389794 622.234042)" fill="url(#eC8OFILKZUR57-fill)" stroke="url(#eC8OFILKZUR57-stroke)" stroke-width="1.41732" stroke-miterlimit="10"/><g transform="matrix(.212807 0 0 0.212807 615.076782 643.985084)"><g clip-path="url(#eC8OFILKZUR64)"><g transform="translate(-14 0)"><path id="eC8OFILKZUR61" d="M549.57,816.58c.002656,3.09589-1.226005,6.065744-3.415131,8.254869s-5.158979,3.417787-8.254869,3.415131h-85.8l36.58,43.59c4.05918,4.944038,3.381658,12.234384-1.519077,16.34574s-12.197854,3.511143-16.360923-1.34574l-32.05-38.19v78.75c.124419,4.248943-2.071305,8.229474-5.73166,10.390676s-8.206324,2.161202-11.86668,0-5.856079-6.141733-5.73166-10.390676v-78.77l-32.06,38.2c-4.142136,4.934664-11.500336,5.577136-16.435,1.435s-5.577136-11.500336-1.435-16.435l36.57-43.59h-85.8c-6.445163,0-11.67-5.224837-11.67-11.67s5.224837-11.67,11.67-11.67h85.8l-36.57-43.59c-2.819255-3.175559-3.691052-7.631887-2.276317-11.635747s4.892685-6.923236,9.081141-7.62267s8.426264.931479,11.065176,4.258417l32.06,38.2v-78.75c-.124419-4.248943,2.071305-8.229474,5.73166-10.390676s8.206324-2.161202,11.86668,0s5.856079,6.141733,5.73166,10.390676v78.75l32.05-38.19c2.66434-3.245137,6.866585-4.808832,11.004184-4.094759s7.572644,3.595821,8.995159,7.546274.613187,8.360553-2.119343,11.548485L452.1,804.91h85.8c3.095076,0,6.063387,1.229514,8.251936,3.418064s3.418064,5.15686,3.418064,8.251936Z" transform="matrix(.002458-.999997 0.999997 0.002458-390.547929 1223.850321)" fill="url(#eC8OFILKZUR61-fill)"/><path id="eC8OFILKZUR62" d="M651.67,681.61c.000004,3.740589-3.029415,6.774483-6.77,6.78h-62.26l31.55,31.54c2.648205,2.648205,2.648205,6.941795,0,9.59s-6.941795,2.648205-9.59,0L573.05,698v62.26c.095395,2.482557-1.174643,4.818471-3.310109,6.088109s-4.794317,1.269637-6.929782,0-3.405504-3.605552-3.310109-6.088109v-62.26L528,729.52c-2.667528,2.527123-6.862666,2.469345-9.459584-.130285s-2.650321-6.794825-.120416-9.459715l31.54-31.54h-62.31c-3.74449,0-6.779999-3.03551-6.779999-6.78s3.035509-6.78,6.779999-6.78h62.27l-31.55-31.55c-2.645444-2.659251-2.634251-6.959556.025-9.605s6.959556-2.634251,9.605.025l31.55,31.55v-62.25c-.095395-2.482557,1.174643-4.818471,3.310109-6.088109s4.794317-1.269637,6.929782,0s3.405504,3.605552,3.310109,6.088109v62.27l31.5-31.57c2.66489-2.529905,6.860086-2.476503,9.459715.120416s2.657408,6.792056.130285,9.459584l-31.56,31.55h62.27c1.79725-.000002,3.520743.714636,4.790652,1.986421s1.982003,2.996331,1.979348,4.793579Z" transform="translate(1 0)" fill="url(#eC8OFILKZUR62-fill)"/><path id="eC8OFILKZUR63" d="M794.14,789.2c.000004,3.740589-3.029415,6.774483-6.77,6.78h-62.26l31.54,31.55c2.645444,2.645444,2.645444,6.934556,0,9.58s-6.934556,2.645444-9.58,0l-31.55-31.55v62.27c-.13989,3.640511-3.131802,6.519664-6.775,6.519664s-6.63511-2.879153-6.775-6.519664v-62.27l-31.56,31.55c-2.645444,2.645444-6.934556,2.645444-9.58,0s-2.645444-6.934556,0-9.58L692.38,796h-62.26c-3.640511-.13989-6.519664-3.131802-6.519664-6.775s2.879153-6.63511,6.519664-6.775h62.27l-31.56-31.56c-2.645444-2.645444-2.645444-6.934556,0-9.58s6.934556-2.645444,9.58,0L702,772.85v-62.28c.13989-3.640511,3.131802-6.519664,6.775-6.519664s6.63511,2.879153,6.775,6.519664v62.28l31.55-31.56c2.645444-2.645444,6.934556-2.645444,9.58,0s2.645444,6.934556,0,9.58L725.1,782.43h62.27c1.795516,0,3.517492.713266,4.787113,1.982887s1.982887,2.991597,1.982887,4.787113Z" transform="translate(0-21)" fill="url(#eC8OFILKZUR63-fill)"/></g><clipPath id="eC8OFILKZUR64" transform="translate(-14 0)"><rect width="579.81" height="286.63" rx="0" ry="0" transform="translate(273.21 716.16)" fill="none"/></clipPath></g><g clip-path="url(#eC8OFILKZUR71)"><g transform="translate(-14 0)" filter="url(#eC8OFILKZUR67-filter)"><path id="eC8OFILKZUR68" d="M549.57,816.58c.002656,3.09589-1.226005,6.065744-3.415131,8.254869s-5.158979,3.417787-8.254869,3.415131h-85.8l36.58,43.59c4.05918,4.944038,3.381658,12.234384-1.519077,16.34574s-12.197854,3.511143-16.360923-1.34574l-32.05-38.19v78.75c.124419,4.248943-2.071305,8.229474-5.73166,10.390676s-8.206324,2.161202-11.86668,0-5.856079-6.141733-5.73166-10.390676v-78.77l-32.06,38.2c-4.142136,4.934664-11.500336,5.577136-16.435,1.435s-5.577136-11.500336-1.435-16.435l36.57-43.59h-85.8c-6.445163,0-11.67-5.224837-11.67-11.67s5.224837-11.67,11.67-11.67h85.8l-36.57-43.59c-2.819255-3.175559-3.691052-7.631887-2.276317-11.635747s4.892685-6.923236,9.081141-7.62267s8.426264.931479,11.065176,4.258417l32.06,38.2v-78.75c-.124419-4.248943,2.071305-8.229474,5.73166-10.390676s8.206324-2.161202,11.86668,0s5.856079,6.141733,5.73166,10.390676v78.75l32.05-38.19c2.66434-3.245137,6.866585-4.808832,11.004184-4.094759s7.572644,3.595821,8.995159,7.546274.613187,8.360553-2.119343,11.548485L452.1,804.91h85.8c3.095076,0,6.063387,1.229514,8.251936,3.418064s3.418064,5.15686,3.418064,8.251936Z" transform="translate(0-19.801238)" fill="url(#eC8OFILKZUR68-fill)"/><path id="eC8OFILKZUR69" d="M651.67,681.61c.000004,3.740589-3.029415,6.774483-6.77,6.78h-62.26l31.55,31.54c2.648205,2.648205,2.648205,6.941795,0,9.59s-6.941795,2.648205-9.59,0L573.05,698v62.26c.095395,2.482557-1.174643,4.818471-3.310109,6.088109s-4.794317,1.269637-6.929782,0-3.405504-3.605552-3.310109-6.088109v-62.26L528,729.52c-2.667528,2.527123-6.862666,2.469345-9.459584-.130285s-2.650321-6.794825-.120416-9.459715l31.54-31.54h-62.31c-3.74449,0-6.779999-3.03551-6.779999-6.78s3.035509-6.78,6.779999-6.78h62.27l-31.55-31.55c-2.645444-2.659251-2.634251-6.959556.025-9.605s6.959556-2.634251,9.605.025l31.55,31.55v-62.25c-.095395-2.482557,1.174643-4.818471,3.310109-6.088109s4.794317-1.269637,6.929782,0s3.405504,3.605552,3.310109,6.088109v62.27l31.5-31.57c2.66489-2.529905,6.860086-2.476503,9.459715.120416s2.657408,6.792056.130285,9.459584l-31.56,31.55h62.27c1.79725-.000002,3.520743.714636,4.790652,1.986421s1.982003,2.996331,1.979348,4.793579Z" transform="translate(1 0)" fill="url(#eC8OFILKZUR69-fill)"/><path id="eC8OFILKZUR70" d="M794.14,789.2c.000004,3.740589-3.029415,6.774483-6.77,6.78h-62.26l31.54,31.55c2.645444,2.645444,2.645444,6.934556,0,9.58s-6.934556,2.645444-9.58,0l-31.55-31.55v62.27c-.13989,3.640511-3.131802,6.519664-6.775,6.519664s-6.63511-2.879153-6.775-6.519664v-62.27l-31.56,31.55c-2.645444,2.645444-6.934556,2.645444-9.58,0s-2.645444-6.934556,0-9.58L692.38,796h-62.26c-3.640511-.13989-6.519664-3.131802-6.519664-6.775s2.879153-6.63511,6.519664-6.775h62.27l-31.56-31.56c-2.645444-2.645444-2.645444-6.934556,0-9.58s6.934556-2.645444,9.58,0L702,772.85v-62.28c.13989-3.640511,3.131802-6.519664,6.775-6.519664s6.63511,2.879153,6.775,6.519664v62.28l31.55-31.56c2.645444-2.645444,6.934556-2.645444,9.58,0s2.645444,6.934556,0,9.58L725.1,782.43h62.27c1.795516,0,3.517492.713266,4.787113,1.982887s1.982887,2.991597,1.982887,4.787113Z" transform="translate(0-25)" fill="url(#eC8OFILKZUR70-fill)"/></g><clipPath id="eC8OFILKZUR71"><path d="M983.38,536.16c0,47.78844-18.984568,93.619444-52.777036,127.410036s-79.624525,52.772616-127.412964,52.769964h-510.62c-86.694991-.09076-157.149973-69.973469-157.947772-156.664837s68.359134-157.85889,155.037772-159.545163c32.82-90.86,119.83-155.8,222-155.8c89.436164-.026142,171.202795,50.50593,211.18,130.51c55.864175-27.793586,122.129302-24.718743,175.179604,8.128707s85.339548,90.795066,85.360396,153.191293Z" fill="none"/></clipPath></g><path d="M983.38,536.16c0,47.78844-18.984568,93.619444-52.777036,127.410036s-79.624525,52.772616-127.412964,52.769964h-510.62c-86.694991-.09076-157.149973-69.973469-157.947772-156.664837s68.359134-157.85889,155.037772-159.545163c32.82-90.86,119.83-155.8,222-155.8c89.436164-.026142,171.202795,50.50593,211.18,130.51c55.864175-27.793586,122.129302-24.718743,175.179604,8.128707s85.339548,90.795066,85.360396,153.191293Z" fill="url(#eC8OFILKZUR73-fill)" stroke="url(#eC8OFILKZUR73-stroke)" stroke-miterlimit="10"/></g></g>
<script><![CDATA[
(function(s,i,u,o,c,w,d,t,n,x,e,p,a,b){(a=Array.from(d.querySelectorAll('svg#' + i.root)).filter(n=> !n.svgatorPlayer)[0]||{}).svgatorPlayer={ready:(function(a){b=[];return function(c){return c?(b.push(c),a.svgatorPlayer):b}})(a)};w[o]=w[o]||{};w[o][s]=w[o][s]||[];w[o][s].push(i);e=d.createElementNS(n,t);e.async=true;e.setAttributeNS(x,'href',[u,s,'.','j','s','?','v','=',c].join(''));e.setAttributeNS(null,'src',[u,s,'.','j','s','?','v','=',c].join(''));p=d.getElementsByTagName(t)[0];p.parentNode.insertBefore(e,p);})('91c80d77',{"root":"eC8OFILKZUR1","version":"2022-05-04","animations":[{"elements":{"eC8OFILKZUR11":{"stroke-dashoffset":[{"t":0,"v":380},{"t":2000,"v":0}]},"eC8OFILKZUR12":{"stroke-dashoffset":[{"t":0,"v":540},{"t":2000,"v":0}]},"eC8OFILKZUR13":{"stroke-dashoffset":[{"t":0,"v":540},{"t":2000,"v":0}]},"eC8OFILKZUR14":{"stroke-dashoffset":[{"t":0,"v":380},{"t":2000,"v":0}]},"eC8OFILKZUR15":{"stroke-dashoffset":[{"t":0,"v":540},{"t":2000,"v":0}]},"eC8OFILKZUR20":{"stroke-dashoffset":[{"t":0,"v":380},{"t":2000,"v":0}]},"eC8OFILKZUR21":{"stroke-dashoffset":[{"t":0,"v":540},{"t":2000,"v":0}]},"eC8OFILKZUR22":{"stroke-dashoffset":[{"t":0,"v":540},{"t":2000,"v":0}]},"eC8OFILKZUR23":{"stroke-dashoffset":[{"t":0,"v":380},{"t":2000,"v":0}]},"eC8OFILKZUR24":{"stroke-dashoffset":[{"t":0,"v":540},{"t":2000,"v":0}]},"eC8OFILKZUR30":{"transform":{"data":{"t":{"x":-493.957504,"y":-459.15802}},"keys":{"o":[{"t":0,"v":{"x":493.957505,"y":459.15802,"type":"corner"},"e":[0.455,0.03,0.515,0.955]},{"t":500,"v":{"x":493.957505,"y":474.15802,"type":"corner"},"e":[0.455,0.03,0.515,0.955]},{"t":1000,"v":{"x":493.957505,"y":459.15802,"type":"corner"}},{"t":1500,"v":{"x":493.957505,"y":474.15802,"type":"corner"},"e":[0.455,0.03,0.515,0.955]},{"t":2000,"v":{"x":493.957505,"y":459.15802,"type":"corner"}}]}}},"eC8OFILKZUR34":{"transform":{"data":{"t":{"x":-0.000015,"y":0.000003}},"keys":{"o":[{"t":0,"v":{"x":387.193009,"y":451.752526,"type":"corner"},"e":[0.455,0.03,0.515,0.955]},{"t":500,"v":{"x":387.193009,"y":437.75253,"type":"corner"},"e":[0.455,0.03,0.515,0.955]},{"t":1000,"v":{"x":387.193009,"y":451.752526,"type":"corner"}},{"t":1500,"v":{"x":387.193009,"y":437.75253,"type":"corner"},"e":[0.455,0.03,0.515,0.955]},{"t":2000,"v":{"x":387.193009,"y":451.752526,"type":"corner"}}]}}},"eC8OFILKZUR43":{"transform":{"data":{"t":{"x":-427.784981,"y":-390.108994}},"keys":{"o":[{"t":0,"v":{"x":427.784981,"y":390.108994,"type":"corner"},"e":[0.455,0.03,0.515,0.955]},{"t":500,"v":{"x":427.784981,"y":406.108994,"type":"corner"},"e":[0.455,0.03,0.515,0.955]},{"t":1000,"v":{"x":427.784981,"y":390.108994,"type":"corner"}},{"t":1500,"v":{"x":427.784981,"y":406.108994,"type":"corner"},"e":[0.455,0.03,0.515,0.955]},{"t":2000,"v":{"x":427.784981,"y":390.108994,"type":"corner"}}]}}},"eC8OFILKZUR48":{"opacity":[{"t":0,"v":1,"e":[0.175,0.885,0.32,1.275]},{"t":500,"v":0,"e":[0.175,0.885,0.32,1.275]},{"t":1000,"v":1,"e":[0.175,0.885,0.32,1.275]},{"t":1500,"v":0,"e":[0.175,0.885,0.32,1.275]},{"t":2000,"v":1,"e":[0.175,0.885,0.32,1.275]}]},"eC8OFILKZUR53":{"opacity":[{"t":0,"v":1,"e":[1,1]},{"t":500,"v":0,"e":[1,1]},{"t":1000,"v":1,"e":[1,1]},{"t":1500,"v":0,"e":[1,1]},{"t":2000,"v":1,"e":[1,1]}]},"eC8OFILKZUR61":{"transform":{"data":{"o":{"x":427.079987,"y":798.779176,"type":"corner"},"r":270.140861,"t":{"x":-427.079987,"y":-816.580414}},"keys":{"s":[{"t":0,"v":{"x":1,"y":1},"e":[0.645,0.045,0.355,1]},{"t":1000,"v":{"x":0.7,"y":0.7},"e":[0.645,0.045,0.355,1]},{"t":2000,"v":{"x":1,"y":1}}]}}},"eC8OFILKZUR62":{"transform":{"data":{"o":{"x":567.27002,"y":681.629669,"type":"corner"},"t":{"x":-566.27002,"y":-681.629669}},"keys":{"s":[{"t":0,"v":{"x":1,"y":1},"e":[0.645,0.045,0.355,1]},{"t":800,"v":{"x":1.1,"y":1.1},"e":[0.645,0.045,0.355,1]},{"t":2000,"v":{"x":1,"y":1}}]}}},"eC8OFILKZUR63":{"transform":{"data":{"o":{"x":708.870087,"y":768.199738,"type":"corner"},"t":{"x":-708.870087,"y":-789.199738}},"keys":{"s":[{"t":200,"v":{"x":1,"y":1},"e":[0.645,0.045,0.355,1]},{"t":1000,"v":{"x":1.3,"y":1.3},"e":[0.645,0.045,0.355,1]},{"t":2000,"v":{"x":1,"y":1}}]}}},"eC8OFILKZUR68":{"transform":{"data":{"o":{"x":427.079987,"y":796.779176,"type":"corner"},"t":{"x":-427.079987,"y":-816.580414}},"keys":{"s":[{"t":0,"v":{"x":1,"y":1},"e":[0.645,0.045,0.355,1]},{"t":800,"v":{"x":0.7,"y":0.7},"e":[0.645,0.045,0.355,1]},{"t":1800,"v":{"x":1,"y":1}}]}}},"eC8OFILKZUR69":{"transform":{"data":{"o":{"x":567.27002,"y":681.629669,"type":"corner"},"t":{"x":-566.27002,"y":-681.629669}},"keys":{"s":[{"t":200,"v":{"x":1,"y":1},"e":[0.645,0.045,0.355,1]},{"t":1000,"v":{"x":1.1,"y":1.1},"e":[0.645,0.045,0.355,1]},{"t":2000,"v":{"x":1,"y":1}}]}}},"eC8OFILKZUR70":{"transform":{"data":{"o":{"x":708.870087,"y":764.199738,"type":"corner"},"t":{"x":-708.870087,"y":-789.199738}},"keys":{"s":[{"t":200,"v":{"x":1,"y":1},"e":[0.645,0.045,0.355,1]},{"t":1000,"v":{"x":1.3,"y":1.3},"e":[0.645,0.045,0.355,1]},{"t":2000,"v":{"x":1,"y":1}}]}}}},"s":"MDYA1ZmE5NTA5MQmEzYTA4Zk5hHMjk3OWQ5YzUHwNjg2MDVlNWIU1ZTVhNTBNOPTI5N2EwOTM5BMVlhMjk3OWRIXOWM1MDY4NWXY1YTUwOTdhMGk05M2EwOGZhDMjk3OWROOWNShMTUwNjg1ZTPVhNTA5NDk3OLWE5YTUwUjY4DNWY1YTUwOGYV5YWEyOTNhMDYljVDhmYTI5MNzUwNjg5NDhmCOWFhMTkzNWEK1MGExOWU5MzWkzOTI1MDY4NYWZYNWM2MDVhJNTA5NDllYTEE1MDY4NWZTNWNU1ZWFi"}],"options":"MDMAxZTg2MmQ3ZWVc3ZlU2YzdkWN2YyZDQ1MmQS3ZTZlN2Q3YUYw3Nzc3MmRRMNzcyZDdlNmVRMN2Q3YTc3NzcJyZDQ1M2Q0MDWg4"},'https://cdn.svgator.com/ply/','__SVGATOR_PLAYER__','2022-05-04',window,document,'script','http://www.w3.org/2000/svg','http://www.w3.org/1999/xlink')
]]></script>
</svg>
